<svg width="45" height="43" viewBox="0 0 45 43" fill="none" xmlns="http://www.w3.org/2000/svg">
<path d="M1.78125 2.375H4.7265C5.81025 2.375 6.75588 3.10388 7.03638 4.14938L7.85025 7.203M7.85025 7.203C19.6879 6.87126 31.5141 8.1872 42.9893 11.113C41.2383 16.3277 39.1579 21.3938 36.7758 26.2812H12.9375M7.85025 7.203L12.9375 26.2812M12.9375 26.2812C11.2467 26.2812 9.62524 26.9529 8.42969 28.1484C7.23415 29.344 6.5625 30.9655 6.5625 32.6562H40.0312M9.75 39.0312C9.75 39.4539 9.58209 39.8593 9.2832 40.1582C8.98432 40.4571 8.57894 40.625 8.15625 40.625C7.73356 40.625 7.32818 40.4571 7.0293 40.1582C6.73041 39.8593 6.5625 39.4539 6.5625 39.0312C6.5625 38.6086 6.73041 38.2032 7.0293 37.9043C7.32818 37.6054 7.73356 37.4375 8.15625 37.4375C8.57894 37.4375 8.98432 37.6054 9.2832 37.9043C9.58209 38.2032 9.75 38.6086 9.75 39.0312ZM36.8438 39.0312C36.8438 39.4539 36.6758 39.8593 36.377 40.1582C36.0781 40.4571 35.6727 40.625 35.25 40.625C34.8273 40.625 34.4219 40.4571 34.123 40.1582C33.8242 39.8593 33.6562 39.4539 33.6562 39.0312C33.6562 38.6086 33.8242 38.2032 34.123 37.9043C34.4219 37.6054 34.8273 37.4375 35.25 37.4375C35.6727 37.4375 36.0781 37.6054 36.377 37.9043C36.6758 38.2032 36.8438 38.6086 36.8438 39.0312Z" stroke="black" stroke-width="3.1875" stroke-linecap="round" stroke-linejoin="round"/>
</svg>
