<svg width="26" height="26" viewBox="0 0 26 26" fill="none" xmlns="http://www.w3.org/2000/svg">
<path d="M20.976 21.9667C20.0444 20.7332 18.839 19.7328 17.4549 19.0445C16.0709 18.3562 14.5458 17.9986 13 18C11.4542 17.9986 9.92921 18.3562 8.54512 19.0445C7.16103 19.7328 5.95568 20.7332 5.02403 21.9667M20.976 21.9667C22.794 20.3496 24.0762 18.2181 24.6549 15.8548C25.2337 13.4915 25.0804 11.0081 24.2153 8.73397C23.3503 6.45983 21.8143 4.50237 19.8112 3.1212C17.8081 1.74003 15.4325 1.0004 12.9994 1.0004C10.5662 1.0004 8.19061 1.74003 6.1875 3.1212C4.18439 4.50237 2.64847 6.45983 1.78341 8.73397C0.918348 11.0081 0.76503 13.4915 1.34379 15.8548C1.92254 18.2181 3.20603 20.3496 5.02403 21.9667M20.976 21.9667C18.7814 23.9242 15.9409 25.0042 13 25C10.0587 25.0045 7.21901 23.9245 5.02403 21.9667M17 10C17 11.0609 16.5786 12.0783 15.8285 12.8284C15.0783 13.5786 14.0609 14 13 14C11.9392 14 10.9217 13.5786 10.1716 12.8284C9.42146 12.0783 9.00003 11.0609 9.00003 10C9.00003 8.93914 9.42146 7.92172 10.1716 7.17158C10.9217 6.42143 11.9392 6 13 6C14.0609 6 15.0783 6.42143 15.8285 7.17158C16.5786 7.92172 17 8.93914 17 10Z" stroke="black" stroke-width="2" stroke-linecap="round" stroke-linejoin="round"/>
</svg>
